HIERARCHY
ROOT joint_Root
{
	OFFSET 0.0 0.0 0.0
	CHANNELS 6 Xposition Yposition Zposition Zrotation Xrotation Yrotation 
	JOINT Hips
	{
		OFFSET 4.5925 91.4895 -427.239
		CHANNELS 6 Xposition Yposition Zposition Zrotation Xrotation Yrotation 
		JOINT Spine
		{
			OFFSET 15.7357 0.0 0.0
			CHANNELS 6 Xposition Yposition Zposition Zrotation Xrotation Yrotation 
			JOINT Chest
			{
				OFFSET 8.98455 -0.406207 0.0
				CHANNELS 6 Xposition Yposition Zposition Zrotation Xrotation Yrotation 
				JOINT Neck
				{
					OFFSET 16.3773 0.0 0.0
					CHANNELS 6 Xposition Yposition Zposition Zrotation Xrotation Yrotation 
					JOINT Head
					{
						OFFSET 6.45672 0.0 0.0
						CHANNELS 6 Xposition Yposition Zposition Zrotation Xrotation Yrotation 
						End Site
						{
							OFFSET 0.0 0.0 0.0
						}
					}
				}
				JOINT Shoulder_L
				{
					OFFSET 12.9942 -0.242716 4.98039
					CHANNELS 6 Xposition Yposition Zposition Zrotation Xrotation Yrotation 
					JOINT UpperArm_L
					{
						OFFSET 5.34809 0.0 0.0
						CHANNELS 6 Xposition Yposition Zposition Zrotation Xrotation Yrotation 
						JOINT LowerArm_L
						{
							OFFSET 24.3286 1.87007e-05 0.0
							CHANNELS 6 Xposition Yposition Zposition Zrotation Xrotation Yrotation 
							JOINT Hand_L
							{
								OFFSET 22.2916 0.0 0.0
								CHANNELS 6 Xposition Yposition Zposition Zrotation Xrotation Yrotation 
								End Site
								{
									OFFSET 0.0 0.0 0.0
								}
							}
						}
					}
				}
				JOINT Shoulder_R
				{
					OFFSET 12.9945 -0.242716 -4.98039
					CHANNELS 6 Xposition Yposition Zposition Zrotation Xrotation Yrotation 
					JOINT UpperArm_R
					{
						OFFSET -5.34813 0.0 0.0
						CHANNELS 6 Xposition Yposition Zposition Zrotation Xrotation Yrotation 
						JOINT LowerArm_R
						{
							OFFSET -24.3289 0.000322201 0.0
							CHANNELS 6 Xposition Yposition Zposition Zrotation Xrotation Yrotation 
							JOINT Hand_R
							{
								OFFSET -22.2915 -0.000108084 0.0
								CHANNELS 6 Xposition Yposition Zposition Zrotation Xrotation Yrotation 
								End Site
								{
									OFFSET 0.0 0.0 0.0
								}
							}
						}
					}
				}
			}
		}
		JOINT UpperLeg_L
		{
			OFFSET -2.19248 -6.46944 0.0
			CHANNELS 6 Xposition Yposition Zposition Zrotation Xrotation Yrotation 
			JOINT LowerLeg_L
			{
				OFFSET 39.0811 0.0 -1.23785e-05
				CHANNELS 6 Xposition Yposition Zposition Zrotation Xrotation Yrotation 
				JOINT Foot_L
				{
					OFFSET 40.9854 0.0 -1.26872e-05
					CHANNELS 6 Xposition Yposition Zposition Zrotation Xrotation Yrotation 
					JOINT Toes_L
					{
						OFFSET 11.7543 0.0 0.0
						CHANNELS 6 Xposition Yposition Zposition Zrotation Xrotation Yrotation 
						End Site
						{
							OFFSET 0.0 0.0 0.0
						}
					}
				}
			}
		}
		JOINT UpperLeg_R
		{
			OFFSET -2.19251 6.46944 0.0
			CHANNELS 6 Xposition Yposition Zposition Zrotation Xrotation Yrotation 
			JOINT LowerLeg_R
			{
				OFFSET -39.0811 -0.00228153 -0.0401928
				CHANNELS 6 Xposition Yposition Zposition Zrotation Xrotation Yrotation 
				JOINT Foot_R
				{
					OFFSET -40.9854 0.0 0.0
					CHANNELS 6 Xposition Yposition Zposition Zrotation Xrotation Yrotation 
					JOINT Toes_R
					{
						OFFSET -11.7543 0.0 0.0
						CHANNELS 6 Xposition Yposition Zposition Zrotation Xrotation Yrotation 
						End Site
						{
							OFFSET 0.0 0.0 0.0
						}
					}
				}
			}
		}
	}
}
MOTION
Frames:	4
Frame Time:	0.0333333
0.000000 0.000000 0.000000 0.000000 0.000000 -0.000000 -1.258220 91.367000 1.316720 89.741000 1.072950 6.370910 15.735700 0.000005 -0.000001 78.675300 87.544700 -78.534400 8.984550 -0.406207 -0.000000 -2.950040 -0.977065 0.256843 16.377300 -0.000001 -0.000001 5.323650 -4.140060 2.183090 6.456720 -0.000001 -0.000000 -3.085870 -4.433460 -1.035390 12.994200 -0.242716 4.980390 -82.834700 -14.513100 -63.359400 5.348090 -0.000007 -0.000001 -42.752800 -54.815300 -100.830000 24.328600 0.000019 0.000005 13.720100 16.102900 -41.355500 22.291600 -0.000001 0.000005 21.420400 5.403390 -3.048100 12.994500 -0.242716 -4.980390 95.281300 -13.041200 -67.723600 -5.348130 -0.000001 -0.000004 -46.527100 -51.887600 -105.017000 -24.328900 0.000322 -0.000009 1.227350 1.758510 -34.945500 -22.291500 -0.000108 -0.000004 17.562700 5.575370 -9.966430 -2.192480 -6.469440 -0.000000 -175.228000 -9.233360 -1.225770 39.081100 -0.000007 -0.000012 -0.170326 0.338749 26.693800 40.985400 -0.000006 -0.000013 -0.297744 6.795620 -69.085300 11.754300 -0.000000 0.000003 -0.000157 -0.001513 -16.635000 -2.192510 6.469440 -0.000001 175.167000 23.248700 -179.551000 -39.081100 -0.002282 -0.040193 -0.072905 0.152837 26.503700 -40.985400 0.000008 0.000006 3.862300 10.182600 -70.294600 -11.754300 -0.000006 -0.000006 -0.002569 -0.035627 -18.021900
0.000000 0.000000 0.000000 0.000000 0.000000 -0.000000 -1.277970 91.395000 1.282590 89.727000 1.040090 6.167300 15.735700 0.000005 -0.000001 79.062600 87.473800 -78.913900 8.984550 -0.406207 -0.000000 -2.804370 -0.971968 0.273608 16.377300 -0.000001 -0.000001 5.163610 -4.136030 2.158820 6.456720 -0.000001 -0.000000 -3.343480 -4.356990 -1.043080 12.994200 -0.242716 4.980390 -82.839500 -14.414000 -63.220700 5.348090 -0.000007 -0.000001 -40.591500 -55.802800 -98.603000 24.328600 0.000019 0.000005 12.960600 15.006000 -41.632400 22.291600 -0.000001 0.000005 21.618400 5.406240 -3.141390 12.994500 -0.242716 -4.980390 95.264900 -12.865000 -67.516900 -5.348130 -0.000001 -0.000004 -44.380500 -53.488600 -103.365000 -24.328900 0.000322 -0.000009 0.938794 1.293600 -36.006500 -22.291500 -0.000108 -0.000004 16.931800 5.572110 -9.796730 -2.192480 -6.469440 -0.000000 -175.262000 -9.171120 -1.395960 39.081100 -0.000007 -0.000012 -0.168171 0.336448 26.558000 40.985400 -0.000006 -0.000013 -0.338373 6.696130 -68.985900 11.754300 -0.000000 0.000003 -0.000157 -0.001513 -16.635000 -2.192510 6.469440 -0.000001 175.281000 23.309700 -179.728000 -39.081100 -0.002282 -0.040193 -0.073629 0.155301 26.354400 -40.985400 0.000008 0.000006 3.877890 10.244300 -70.195900 -11.754300 -0.000006 -0.000006 -0.002505 -0.034864 -17.990800
0.000000 0.000000 0.000000 0.000000 0.000000 -0.000000 -1.300230 91.426800 1.248480 89.743200 1.036550 5.966230 15.735700 0.000005 -0.000001 78.863100 87.379700 -78.723600 8.984550 -0.406207 -0.000000 -2.623100 -1.024520 0.255490 16.377300 -0.000001 -0.000001 4.971140 -4.108800 2.136860 6.456720 -0.000001 -0.000000 -3.544630 -4.247500 -1.058850 12.994200 -0.242716 4.980390 -82.841100 -14.303700 -63.052100 5.348090 -0.000007 -0.000001 -38.080700 -56.792600 -95.610300 24.328600 0.000019 0.000005 12.611400 14.122000 -42.520600 22.291600 -0.000001 0.000005 21.636500 5.404880 -3.096880 12.994500 -0.242716 -4.980390 95.274100 -12.669400 -67.174000 -5.348130 -0.000001 -0.000004 -41.893600 -54.986100 -101.044000 -24.328900 0.000322 -0.000009 0.296430 0.386611 -37.590400 -22.291500 -0.000108 -0.000004 16.154300 5.565310 -9.450150 -2.192480 -6.469440 -0.000000 -175.318000 -9.138600 -1.545530 39.081100 -0.000007 -0.000012 -0.167121 0.336971 26.379400 40.985400 -0.000006 -0.000013 -0.373889 6.629740 -68.860200 11.754300 -0.000000 0.000003 -0.000153 -0.001475 -16.633600 -2.192510 6.469440 -0.000001 175.372000 23.342500 -179.896000 -39.081100 -0.002282 -0.040193 -0.071991 0.153028 26.200500 -40.985400 0.000008 0.000006 3.920980 10.290200 -70.107900 -11.754300 -0.000006 -0.000006 -0.002653 -0.036611 -18.061900
0.000000 0.000000 0.000000 0.000000 0.000000 -0.000000 -1.323870 91.469400 1.184600 89.768100 1.020370 5.651640 15.735700 0.000005 -0.000001 78.165900 87.339500 -78.046200 8.984550 -0.406207 -0.000000 -2.557100 -1.101650 0.214906 16.377300 -0.000001 -0.000001 4.905140 -4.152340 2.131000 6.456720 -0.000001 -0.000000 -3.644700 -4.128580 -1.073650 12.994200 -0.242716 4.980390 -82.921000 -14.041600 -62.895100 5.348090 -0.000007 -0.000001 -35.809200 -57.308200 -92.356600 24.328600 0.000019 0.000005 12.245400 12.962700 -44.055200 22.291600 -0.000001 0.000005 21.895900 5.398760 -2.897270 12.994500 -0.242716 -4.980390 95.286900 -12.428300 -66.733900 -5.348130 -0.000001 -0.000004 -40.201700 -55.717100 -98.866300 -24.328900 0.000322 -0.000009 -0.597246 -0.722680 -39.515000 -22.291500 -0.000108 -0.000004 15.417300 5.558440 -9.110550 -2.192480 -6.469440 -0.000000 -175.362000 -9.284320 -1.787570 39.081100 -0.000007 -0.000012 -0.165056 0.336343 26.139100 40.985400 -0.000006 -0.000013 -0.378085 6.737120 -68.687000 11.754300 -0.000000 0.000003 -0.000155 -0.001493 -16.634300 -2.192510 6.469440 -0.000001 175.539000 23.369400 179.779000 -39.081100 -0.002282 -0.040193 -0.067368 0.144700 26.033000 -40.985400 0.000008 0.000006 4.036120 10.264200 -69.994800 -11.754300 -0.000006 -0.000006 -0.002466 -0.034402 -17.972100
